<svg xmlns="http://www.w3.org/2000/svg" version="1.1" xmlns:xlink="http://www.w3.org/1999/xlink" xmlns:svgjs="http://svgjs.dev/svgjs" width="1500" height="1687" viewBox="0 0 1500 1687"><g transform="matrix(1,0,0,1,0.00011015625000254659,0)"><svg viewBox="0 0 320 360" data-background-color="#ffffff" preserveAspectRatio="xMidYMid meet" height="1687" width="1500" xmlns="http://www.w3.org/2000/svg" xmlns:xlink="http://www.w3.org/1999/xlink"><g id="tight-bounds" transform="matrix(1,0,0,1,0.000023499999997511622,0)"><svg viewBox="0 0 320 360" height="360" width="320"><g><svg></svg></g><g><svg viewBox="0 0 320 360" height="360" width="320"><g><path transform="translate(-74.99272,-51.79039) scale(4.65793,4.65793)" d="M20.6 59.9l0.8 1-0.4-1.3c-0.1-0.6-0.8 0.1-0.4 0.3M21.5 59.3c0.3 0.5 0.6 1 0.6 1.5 0 0.7 0.6 1 1.1 1.2-0.7-0.8-1.1-3-1.7-2.7M59.9 16.9c1.7 0 3.3-0.2 5.1 0.2 4.4 1.1 8.1 3.3 10.6 6.4l7 11.2c0.3 2.8 0.9 5.9 0.8 9.3 0.7 0 0.6-1 1.4-1.2-0.8 2-1.2 4.5-1.4 7.4-0.5-1.6 0-4 0.1-5.3-0.7 1.1-1.1 0.3-1.1-0.2 0.1-0.8-0.3-0.7-0.6-1-1.1-1-1.8-2.1-2.6-3.8 0.5-1.3 0.6-3.2-1-4.2-0.5-0.3-1.1-0.8-1.4-1.6-0.4-1.1-1.1-2.4-0.9-4.1 0.1-0.5-1.5 1.1-2.4 0.4-3.9-2.7-7.8-5.8-12.5-8.4-2.5 0-4.3-0.9-5.2-2-0.8-1-0.2-2.3 1-2.4 0.7 0 1.5-0.2 2.1 0.2 0.1-0.4 0.5-0.9 1-0.9M50 14.6l0.2 0.1c1 0.2 1.5 1.6 2.6 1.1 0 0.7 0.1 1.4-0.1 1.9-0.3 0.8-1.2 0.8-1.9 0.8-6.7-0.4-10.6 2.4-14.7 4.8-1.1 0.7-2.3 1.2-3.2 2.1-4.3 4-9 7.7-10.1 15.1l-0.9 8.2c-0.1 0.9-1.1 1.8-0.9 2.9l0.7 4.9c-0.7-0.7-1.1 0.2-0.9 0.6 0.1 0.3 0.5 1.3 1.1 0.4 0.8 1.5 1.6 4.4 2.7 5.7 3.4 4 7.8 7.6 11.4 11.2 0.9-0.2 1.6-0.2 1.8-0.8 0.3 0.6-0.3 1.2-0.8 1.3 1.6 1 3.4 1.9 5.8 2.1 3.1 0.2 6 0.7 8.7 1.4 1.4-0.4 2.8-0.6 4.3-0.7 0.5 0 0.8-0.8 1.4-1l0.1-1c0.6 0.9 0.5-0.3 0.1-0.9 0.7 0.6 0.9 1.1 1.2 1.5 0-0.3 0.8-1.4 0.8-0.1l0.2-1.3c0.3-0.2 0.4 1.1 0.7 0.2 0.3-0.9 0.9-0.2 1.5-0.5-0.2 0.4-0.1 1.2 0.6 0.7l0.8-0.7c0.5 1.2 1.3 0.7 1.7 0.5 4.4-2.8 8.8-6.1 13-9.4l-0.1 1.3 0.5-1.6c0.5 0.5 0.9 0.1 1.1-0.2 0.6-1 1.4-2 2.7-2.9-1.6 4.3-3.5 7.7-5.9 10.5l-1 1.2c0 0.7-0.2 1.6-1 1.7-0.4 0.1-1.2-0.2-1.8 0.4-0.3 0.4 0.7 1.2-0.1 0.6-0.7-0.5-1.4 0-2.2 0.2-0.6 0.2 0.4 0.8 0.6 1.2 0.2 0.4 0.4 0.8 0.3 1.3l-1.1-1.2c-1.3 0.7-2.1 2-3.2 3-0.5 0.4-0.3 1.1-0.3 1.7-0.7 0-1.5-0.2-1.9 0.2-0.3 0.4-0.2 1-0.2 1.6-1-0.1-1.1-1.6-2-1.3-0.9 0.2-1.9 0.3-2.7 0.8 0.6 1.2-1 0.5-0.8 0.7-1.5-0.9-2.8-1.6-4.4-1-3.4-1.1-7.6-0.6-10.7-0.2 0-0.5 0.1-1-0.1-1.1-0.2 0.5-0.8 0.3-0.7 0.3-1.9-1.3-3.8-2.1-5.8-3.2-1.8 0.2-3.5-0.7-4-1.2-1.4-1.3-3-0.6-4.3-0.9-2.8-0.7-3.8-3.6-4.1-5.6-0.2-1-1-1.4-1.3-1.3-1.3-4.2-3.3-8-4.9-11.9-0.4-1-0.3-2-0.3-3.1 0.5 0.2 1 0.1 0.9-0.6-0.5-3.3-1.7-5.8-3-8.2 0.7-3.4 0.8-7.4 2.4-10.4 1.4-2.7 4-4.1 5.8-6.4 0.6-0.8 0.6-1.9 1.2-2.6 2-2 4-4.1 6.2-5.9 1-0.8 2.2 0 3.7-0.3 0.5-1.8 2.5-3.4 4.4-2.9 0.8 0.2 2.4-1.9 2.9-2.1 0.8-0.3 0.4 0.8 0.4 1.5 1.9-1.5 4.5-2.3 6.9-3.2" fill="#aaa6c3" fill-rule="nonzero" stroke="none" stroke-width="1" stroke-linecap="butt" stroke-linejoin="miter" stroke-miterlimit="10" stroke-dasharray="" stroke-dashoffset="0" font-family="none" font-weight="none" font-size="none" text-anchor="none" style="mix-blend-mode: normal" data-fill-palette-color="tertiary"></path></g><g transform="matrix(1,0,0,1,82.5173693237151,90)"><svg viewBox="0 0 154.9652613525698 180" height="180" width="154.9652613525698"><g><svg viewBox="0 0 154.9652613525698 180" height="180" width="154.9652613525698"><g><svg viewBox="0 0 192 223.01772473619548" height="180" width="154.9652613525698"><g transform="matrix(1,0,0,1,0,83.2757892523245)"><svg viewBox="0 0 192 139.74193548387098" height="139.74193548387098" width="192"><g id="textblocktransform"><svg viewBox="0 0 192 139.74193548387098" height="139.74193548387098" width="192" id="textblock"><g><svg viewBox="0 0 192 139.74193548387098" height="139.74193548387098" width="192"><g transform="matrix(1,0,0,1,0,0)"><svg width="192" viewBox="3.65 -35.5 49.6 36.1" height="139.74193548387098" data-palette-color="#aaa6c3"><path d="M9.9 0L3.65 0 3.65-34.9 24.05-34.9 24.05-29.45 9.9-29.45 9.9-20.35 22.15-20.35 22.15-15.05 9.9-15.05 9.9 0ZM41.45 0.6L41.45 0.6Q38.35 0.6 35.85-0.38 33.35-1.35 31.57-3.5 29.8-5.65 28.82-9.05 27.85-12.45 27.85-17.25L27.85-17.25Q27.85-22.1 28.82-25.55 29.8-29 31.57-31.2 33.35-33.4 35.85-34.45 38.35-35.5 41.45-35.5L41.45-35.5Q43.75-35.5 45.55-35 47.35-34.5 48.75-33.52 50.15-32.55 51.2-31.05 52.25-29.55 53.1-27.55L53.1-27.55 47.8-24.75Q47-27.6 45.55-28.85 44.1-30.1 41.45-30.1L41.45-30.1Q38.15-30.1 36.32-27.95 34.5-25.8 34.5-21.8L34.5-21.8 34.5-13.1Q34.5-9.1 36.32-6.95 38.15-4.8 41.45-4.8L41.45-4.8Q44.1-4.8 45.67-6.15 47.25-7.5 48.15-10.5L48.15-10.5 53.25-7.5Q52.4-5.55 51.3-4.05 50.2-2.55 48.77-1.53 47.35-0.5 45.55 0.05 43.75 0.6 41.45 0.6Z" opacity="1" transform="matrix(1,0,0,1,0,0)" fill="#aaa6c3" class="wordmark-text-0" data-fill-palette-color="primary" id="text-0"></path></svg></g></svg></g></svg></g></svg></g><g transform="matrix(1,0,0,1,40.82496,0)"><svg viewBox="0 0 110.35008 50.28607209103417" height="50.28607209103417" width="110.35008"><g><svg xmlns="http://www.w3.org/2000/svg" xmlns:xlink="http://www.w3.org/1999/xlink" version="1.1" x="0" y="0" viewBox="5 29.49387475885969 90 41.012625348283166" enable-background="new 0 0 100 100" xml:space="preserve" height="50.28607209103417" width="110.35008" class="icon-icon-0" data-fill-palette-color="accent" id="icon-0"><g fill="#aaa6c3" data-fill-palette-color="accent"><path d="M23.943 30.807L5 50.001l18.942 19.192c1.728 1.751 4.53 1.751 6.258 0.002 1.729-1.75 1.73-4.587 0.002-6.338L18.193 50.695l-3.624 2.289 15.634-15.841c0.864-0.875 1.295-2.021 1.295-3.168 0-1.147-0.433-2.295-1.297-3.17C28.473 29.056 25.671 29.057 23.943 30.807z" fill="#aaa6c3" data-fill-palette-color="accent"></path><path d="M76.057 30.808L95 50.001 76.058 69.193c-1.728 1.751-4.53 1.751-6.258 0.002-1.729-1.75-1.73-4.587-0.002-6.338l12.009-12.161 3.624 2.289L69.796 37.144c-0.864-0.875-1.295-2.021-1.295-3.168 0-1.147 0.433-2.295 1.297-3.17C71.527 29.056 74.329 29.057 76.057 30.808z" fill="#aaa6c3" data-fill-palette-color="accent"></path><path d="M60.899 32.352c-0.419-1.068-1.241-1.978-2.366-2.476-2.249-0.997-4.857 0.028-5.825 2.288l-13.82 32.062c-0.484 1.13-0.467 2.355-0.048 3.422 0.419 1.068 1.241 1.978 2.366 2.476 2.249 0.997 4.857-0.028 5.825-2.288l13.82-32.062C61.335 34.644 61.318 33.419 60.899 32.352z" fill="#aaa6c3" data-fill-palette-color="accent"></path></g></svg></g></svg></g><g></g></svg></g></svg></g></svg></g></svg></g><defs></defs></svg><rect width="320" height="360" fill="none" stroke="none" visibility="hidden"></rect></g></svg></g></svg>